<?xml version="1.0" standalone="no"?>
<!DOCTYPE svg PUBLIC "-//W3C//DTD SVG 20010904//EN"
 "http://www.w3.org/TR/2001/REC-SVG-20010904/DTD/svg10.dtd">
<svg version="1.0" xmlns="http://www.w3.org/2000/svg"
 width="400.000000pt" height="100.000000pt" viewBox="0 0 400.000000 100.000000"
 preserveAspectRatio="xMidYMid meet">

<g transform="translate(0.000000,100.000000) scale(0.100000,-0.100000)"
fill="#000000" stroke="none">
<path d="M2220 655 c0 -23 4 -26 28 -23 19 2 27 9 27 23 0 14 -8 21 -27 23
-24 3 -28 0 -28 -23z"/>
<path d="M2773 673 c-24 -9 -13 -33 17 -39 l30 -6 0 -113 0 -112 -30 -6 c-32
-7 -40 -31 -14 -41 24 -9 117 -7 133 3 21 13 5 41 -24 41 l-25 0 0 134 c0 113
-2 135 -16 140 -18 7 -53 7 -71 -1z"/>
<path d="M2983 673 c-24 -9 -13 -33 17 -39 l30 -6 0 -114 0 -114 -25 0 c-29 0
-45 -28 -24 -41 18 -11 120 -11 138 0 21 13 5 41 -24 41 l-25 0 0 134 c0 113
-2 135 -16 140 -18 7 -53 7 -71 -1z"/>
<path d="M617 664 c-4 -4 -7 -76 -7 -161 l0 -153 101 0 c90 0 100 2 97 18 -3
14 -16 17 -80 20 l-77 3 -3 136 c-3 127 -10 158 -31 137z"/>
<path d="M1777 664 c-4 -4 -7 -20 -7 -35 0 -18 -6 -28 -20 -32 -26 -7 -26 -37
0 -37 17 0 19 -8 22 -81 2 -65 7 -84 20 -93 23 -14 49 7 30 26 -7 7 -12 40
-12 80 l0 68 51 0 c43 0 50 3 47 18 -2 13 -15 18 -50 20 -44 3 -47 5 -50 34
-3 31 -17 45 -31 32z"/>
<path d="M836 635 c-23 -22 -26 -31 -26 -94 0 -63 2 -71 26 -90 22 -17 41 -21
101 -21 66 0 74 2 71 18 -3 14 -16 18 -68 20 -60 3 -90 14 -90 33 0 4 35 9 78
11 l77 3 3 47 c3 41 -1 51 -24 73 -38 35 -110 35 -148 0z m122 -27 c7 -7 12
-22 12 -35 0 -21 -4 -23 -60 -23 -56 0 -60 2 -60 23 0 33 18 47 60 47 20 0 41
-5 48 -12z"/>
<path d="M1320 650 c0 -5 -1 -13 -2 -17 -2 -5 22 -10 52 -13 48 -4 55 -8 58
-27 3 -22 0 -23 -57 -23 -48 0 -65 -4 -81 -20 -24 -24 -26 -67 -4 -98 15 -21
22 -23 102 -20 l87 3 -3 95 c-3 116 -14 130 -98 130 -30 0 -54 -4 -54 -10z
m110 -140 c0 -25 -29 -40 -75 -40 -37 0 -52 17 -41 45 4 11 21 15 61 15 48 0
55 -2 55 -20z"/>
<path d="M3225 579 c-52 -30 -65 -51 -65 -105 0 -47 4 -57 32 -83 48 -44 168
-56 168 -17 0 18 -22 26 -74 26 -59 0 -86 22 -86 70 0 54 34 80 107 80 46 0
54 3 51 18 -2 13 -15 18 -58 19 -30 2 -64 -2 -75 -8z"/>
<path d="M1510 464 c0 -105 2 -115 18 -112 14 3 17 16 20 85 2 70 6 84 22 93
18 10 19 6 22 -82 3 -79 6 -93 21 -96 15 -3 17 6 17 80 0 70 3 85 19 95 17 11
19 7 25 -34 3 -25 6 -68 6 -94 0 -43 2 -49 22 -49 21 0 21 2 15 102 -7 115
-18 136 -64 123 -15 -5 -32 -7 -38 -5 -5 2 -31 4 -57 6 l-48 3 0 -115z"/>
<path d="M1947 573 c-4 -3 -7 -55 -7 -115 0 -99 2 -109 18 -106 14 3 18 16 20
66 3 56 6 66 35 92 40 37 74 39 87 5 5 -14 16 -25 25 -25 22 0 19 46 -5 70
-26 26 -74 26 -110 0 -28 -20 -28 -20 -33 0 -5 20 -18 26 -30 13z"/>
<path d="M2180 561 c0 -17 6 -21 30 -21 l30 0 0 -74 c0 -74 0 -75 -27 -78 -17
-2 -29 -10 -31 -21 -3 -16 4 -18 75 -15 61 2 78 6 78 18 0 9 -11 16 -27 18
-27 3 -27 3 -30 95 l-3 92 -47 3 c-43 3 -48 1 -48 -17z"/>
<path d="M2389 542 c-33 -34 -39 -46 -39 -82 0 -36 6 -48 36 -77 35 -32 39
-34 103 -31 51 2 66 6 66 18 0 11 -15 16 -62 18 -53 3 -65 7 -83 29 -46 59 -7
115 88 123 42 4 57 9 57 20 0 11 -15 16 -63 18 -62 3 -64 2 -103 -36z"/>
<path d="M1053 523 c2 -27 19 -78 36 -115 28 -60 34 -68 59 -68 26 0 31 7 66
89 38 89 44 136 16 136 -8 0 -17 -11 -19 -25 -1 -14 -17 -54 -33 -90 l-30 -65
-29 60 c-16 33 -29 68 -29 77 0 28 -11 48 -27 48 -13 0 -15 -9 -10 -47z"/>
</g>
</svg>
